<svg width="65" height="46" viewBox="0 0 65 46" fill="none" xmlns="http://www.w3.org/2000/svg">
<path fill-rule="evenodd" clip-rule="evenodd" d="M21.0653 0L16 3.216L18.1991 6.67975C10.5138 9.78436 4.10974 15.3955 0 22.4999C6.39746 33.5593 18.3549 40.9999 32.05 40.9999C34.606 40.9999 37.1013 40.7408 39.5114 40.2473L42.7759 45.3892L47.8412 42.1732L45.4968 38.4807C53.3617 35.4113 59.9186 29.7286 64.1001 22.4999C57.7026 11.4406 45.7452 3.99994 32.05 3.99994C29.3361 3.99994 26.6903 4.29211 24.1426 4.8468L21.0653 0ZM23.2136 14.5778C21.2529 16.6403 20.0498 19.4296 20.0498 22.4999C20.0498 28.8512 25.1985 33.9999 31.5498 33.9999C32.8164 33.9999 34.035 33.7952 35.1747 33.417L23.2136 14.5778ZM40.1779 30.1031L28.3378 11.4545C29.3572 11.1586 30.4349 10.9999 31.5498 10.9999C33.5179 10.9999 35.3706 11.4943 36.9904 12.3657C35.84 12.9392 35.0498 14.1273 35.0498 15.4999C35.0498 17.4329 36.6168 18.9999 38.5498 18.9999C39.9225 18.9999 41.1106 18.2097 41.6841 17.0594C42.5554 18.6792 43.0498 20.5318 43.0498 22.4999C43.0498 25.4148 41.9653 28.0764 40.1779 30.1031Z" fill="#2F2F2F"/>
</svg>
