<svg width="66" height="37" viewBox="0 0 66 37" fill="none" xmlns="http://www.w3.org/2000/svg">
<path fill-rule="evenodd" clip-rule="evenodd" d="M0.950195 18.5C7.34766 7.44067 19.3051 0 33.0002 0C46.6954 0 58.6528 7.44067 65.0503 18.5C58.6528 29.5593 46.6954 37 33.0002 37C19.3051 37 7.34766 29.5593 0.950195 18.5ZM44 18.5C44 24.8513 38.8513 30 32.5 30C26.1487 30 21 24.8513 21 18.5C21 12.1487 26.1487 7 32.5 7C34.4681 7 36.3208 7.49438 37.9406 8.36578C36.7903 8.93927 36 10.1274 36 11.5C36 13.433 37.567 15 39.5 15C40.8727 15 42.0608 14.2098 42.6343 13.0595C43.5056 14.6793 44 16.5319 44 18.5Z" fill="#2F2F2F"/>
</svg>
